<svg xmlns="http://www.w3.org/2000/svg" viewBox="0 0 340 214" role="img" aria-label="Cartão Suica (verde)">
  <defs>
    <linearGradient id="suicaBg" x1="0" y1="0" x2="1" y2="1">
      <stop offset="0" stop-color="#46c07a"/>
      <stop offset="1" stop-color="#2c9a5b"/>
    </linearGradient>
  </defs>
  <rect width="340" height="214" fill="#ffffff"/>
  <rect x="12" y="12" width="316" height="190" rx="20" fill="url(#suicaBg)"/>

  <!-- wordmark -->
  <text x="34" y="62" font-family="Arial, sans-serif" font-size="40" font-style="italic" font-weight="800" fill="#ffffff">Suica</text>

  <!-- IC chip -->
  <rect x="36" y="96" width="46" height="36" rx="6" fill="#f4c84a" stroke="#caa233" stroke-width="2"/>
  <path d="M36 114 H82 M59 96 V132" stroke="#caa233" stroke-width="2" fill="none"/>

  <!-- contactless waves -->
  <g fill="none" stroke="#ffffff" stroke-width="4" stroke-linecap="round" opacity="0.9">
    <path d="M104 100 a18 18 0 0 1 0 36"/>
    <path d="M116 92 a30 30 0 0 1 0 52"/>
  </g>

  <!-- generic penguin (recognition aid) -->
  <g transform="translate(232 96)">
    <ellipse cx="40" cy="58" rx="40" ry="48" fill="#16384a"/>
    <ellipse cx="40" cy="64" rx="24" ry="34" fill="#ffffff"/>
    <circle cx="29" cy="40" r="5" fill="#16384a"/>
    <circle cx="51" cy="40" r="5" fill="#16384a"/>
    <path d="M34 50 L46 50 L40 60 Z" fill="#f3a32a"/>
    <path d="M22 102 l16 4 -4 8 -16 -2 Z" fill="#f3a32a"/>
    <path d="M58 102 l-16 4 4 8 16 -2 Z" fill="#f3a32a"/>
  </g>
</svg>
